<?xml version="1.0" encoding="UTF-8"?>
<!-- Generator: visioncortex VTracer 0.6.3 -->
<svg version="1.1" xmlns="http://www.w3.org/2000/svg" width="1280" height="225">
<path d="M0 0 C124.41 0 248.82 0 377 0 C377 24.75 377 49.5 377 75 C352.25 75.33 327.5 75.66 302 76 C301.67 125.17 301.34 174.34 301 225 C276.25 225 251.5 225 226 225 C225.67 175.83 225.34 126.66 225 76 C200.58 75.67 176.16 75.34 151 75 C151 124.5 151 174 151 225 C125.59 225 100.18 225 74 225 C74 175.83 74 126.66 74 76 C37.37 75.5 37.37 75.5 0 75 C0 50.25 0 25.5 0 0 Z " fill="#2D2B2A" transform="translate(753,0)"/>
<path d="M0 0 C50.16 0 100.32 0 152 0 C152 24.09 152 48.18 152 73 C175.56 72.92 175.56 72.92 199.12 72.82 C203.68 72.81 203.68 72.81 205.81 72.81 C207.3 72.81 208.79 72.8 210.28 72.79 C212.54 72.77 214.79 72.77 217.05 72.77 C218.32 72.77 219.59 72.76 220.91 72.76 C224 73 224 73 227 75 C227.37 77.59 227.37 77.59 227.36 80.94 C227.37 82.83 227.37 82.83 227.37 84.77 C227.36 86.18 227.35 87.59 227.34 89 C227.34 90.47 227.34 91.95 227.34 93.43 C227.34 97.45 227.33 101.47 227.3 105.49 C227.29 109.69 227.28 113.89 227.28 118.09 C227.27 126.04 227.25 134 227.22 141.95 C227.18 152.7 227.16 163.44 227.14 174.19 C227.11 191.13 227.05 208.06 227 225 C201.59 225 176.18 225 150 225 C150 175.83 150 126.66 150 76 C125.91 75.67 101.82 75.34 77 75 C77 124.5 77 174 77 225 C51.59 225 26.18 225 0 225 C0 150.75 0 76.5 0 0 Z " fill="#2D2B2A" transform="translate(300,0)"/>
<path d="M0 0 C25.08 0 50.16 0 76 0 C76 48.84 76 97.68 76 148 C100.09 148 124.18 148 149 148 C149 99.16 149 50.32 149 0 C174.41 0 199.82 0 226 0 C226 49.5 226 99 226 150 C201.25 150 176.5 150 151 150 C151 174.75 151 199.5 151 225 C125.59 225 100.18 225 74 225 C74 200.58 74 176.16 74 151 C37.37 150.5 37.37 150.5 0 150 C0 100.5 0 51 0 0 Z M149 148 C124.91 148.33 100.82 148.66 76 149 C76 149.33 76 149.66 76 150 C100.42 150 124.84 150 150 150 C149.5 149.01 149.5 149.01 149 148 Z " fill="#2D2B2A" transform="translate(0,0)"/>
<path d="M0 0 C25.41 0 50.82 0 77 0 C77 74.25 77 148.5 77 225 C51.59 225 26.18 225 0 225 C0 150.75 0 76.5 0 0 Z " fill="#2D2B2A" transform="translate(1203,0)"/>
<path d="M0 0 C25.41 0 50.82 0 77 0 C77 74.25 77 148.5 77 225 C51.59 225 26.18 225 0 225 C0 150.75 0 76.5 0 0 Z " fill="#2D2B2A" transform="translate(601,0)"/>
<path d="M0 0 C0.33 0 0.66 0 1 0 C1 49.17 1 98.34 1 149 C0.67 149 0.34 149 0 149 C0 99.83 0 50.66 0 0 Z " fill="#2D2B2A" transform="translate(977,76)"/>
<path d="M0 0 C0.33 0 0.66 0 1 0 C1 23.76 1 47.52 1 72 C0.67 72 0.34 72 0 72 C0 48.24 0 24.48 0 0 Z " fill="#2D2B2A" transform="translate(751,0)"/>
</svg>
